<?xml version="1.0" encoding="UTF-8" standalone="no"?>
<!DOCTYPE svg PUBLIC "-//W3C//DTD SVG 1.1//EN"
 "http://www.w3.org/Graphics/SVG/1.1/DTD/svg11.dtd">
<!-- Generated by graphviz version 2.43.20190912.0211 (20190912.0211)
 -->
<!-- Title: G Pages: 1 -->
<svg width="138pt" height="312pt"
 viewBox="0.00 0.00 138.00 312.00" xmlns="http://www.w3.org/2000/svg" xmlns:xlink="http://www.w3.org/1999/xlink">
<g id="graph0" class="graph" transform="scale(1 1) rotate(0) translate(4 308)">
<title>G</title>
<polygon fill="white" stroke="transparent" points="-4,4 -4,-308 134,-308 134,4 -4,4"/>
<g id="clust1" class="cluster">
<title>cluster_Global</title>
<path fill="none" stroke="gray" d="M20,-8C20,-8 110,-8 110,-8 116,-8 122,-14 122,-20 122,-20 122,-284 122,-284 122,-290 116,-296 110,-296 110,-296 20,-296 20,-296 14,-296 8,-290 8,-284 8,-284 8,-20 8,-20 8,-14 14,-8 20,-8"/>
<text text-anchor="middle" x="65" y="-283.2" font-family="Times,serif" font-size="11.00" fill="gray">Global</text>
</g>
<!-- \\notification -->
<g id="node1" class="node">
<title>\\notification</title>
<polygon fill="none" stroke="black" points="114,-268 16,-268 16,-232 114,-232 114,-268"/>
<text text-anchor="middle" x="65" y="-247.2" font-family="Courier,monospace" font-size="11.00">notification</text>
</g>
<!-- \\voice -->
<g id="node2" class="node">
<title>\\voice</title>
<polygon fill="none" stroke="black" points="92,-214 38,-214 38,-178 92,-178 92,-214"/>
<text text-anchor="middle" x="65" y="-193.2" font-family="Courier,monospace" font-size="11.00">voice</text>
</g>
<!-- \\instrument -->
<g id="node3" class="node">
<title>\\instrument</title>
<polygon fill="none" stroke="black" points="107,-160 23,-160 23,-124 107,-124 107,-160"/>
<text text-anchor="middle" x="65" y="-139.2" font-family="Courier,monospace" font-size="11.00">instrument</text>
</g>
<!-- \\event -->
<g id="node4" class="node">
<title>\\event</title>
<polygon fill="none" stroke="black" points="92,-106 38,-106 38,-70 92,-70 92,-106"/>
<text text-anchor="middle" x="65" y="-85.2" font-family="Courier,monospace" font-size="11.00">event</text>
</g>
<!-- \\band -->
<g id="node5" class="node">
<title>\\band</title>
<polygon fill="none" stroke="black" points="92,-52 38,-52 38,-16 92,-16 92,-52"/>
<text text-anchor="middle" x="65" y="-31.2" font-family="Courier,monospace" font-size="11.00">band</text>
</g>
</g>
</svg>
